solid ASCII
  facet normal -0.000000e+00 0.000000e+00 -1.000000e+00
    outer loop
      vertex   2.169419e+00 4.504844e+00 -3.491260e+00
      vertex   0.000000e+00 -5.000000e+00 -3.491260e+00
      vertex   0.000000e+00 5.000000e+00 -3.491260e+00
    endloop
  endfacet
  facet normal 0.000000e+00 -0.000000e+00 -1.000000e+00
    outer loop
      vertex   0.000000e+00 5.000000e+00 -3.491260e+00
      vertex   0.000000e+00 -5.000000e+00 -3.491260e+00
      vertex   -2.169419e+00 -4.504844e+00 -3.491260e+00
    endloop
  endfacet
  facet normal 0.000000e+00 0.000000e+00 -1.000000e+00
    outer loop
      vertex   0.000000e+00 5.000000e+00 -3.491260e+00
      vertex   -2.169419e+00 -4.504844e+00 -3.491260e+00
      vertex   -2.169419e+00 4.504844e+00 -3.491260e+00
    endloop
  endfacet
  facet normal 0.000000e+00 -0.000000e+00 -1.000000e+00
    outer loop
      vertex   -2.169419e+00 4.504844e+00 -3.491260e+00
      vertex   -2.169419e+00 -4.504844e+00 -3.491260e+00
      vertex   -3.909157e+00 -3.117449e+00 -3.491260e+00
    endloop
  endfacet
  facet normal 0.000000e+00 0.000000e+00 -1.000000e+00
    outer loop
      vertex   -2.169419e+00 4.504844e+00 -3.491260e+00
      vertex   -3.909157e+00 -3.117449e+00 -3.491260e+00
      vertex   -3.909157e+00 3.117449e+00 -3.491260e+00
    endloop
  endfacet
  facet normal 0.000000e+00 -0.000000e+00 -1.000000e+00
    outer loop
      vertex   -3.909157e+00 3.117449e+00 -3.491260e+00
      vertex   -3.909157e+00 -3.117449e+00 -3.491260e+00
      vertex   -4.874640e+00 -1.112605e+00 -3.491260e+00
    endloop
  endfacet
  facet normal 0.000000e+00 0.000000e+00 -1.000000e+00
    outer loop
      vertex   -3.909157e+00 3.117449e+00 -3.491260e+00
      vertex   -4.874640e+00 -1.112605e+00 -3.491260e+00
      vertex   -4.874640e+00 1.112605e+00 -3.491260e+00
    endloop
  endfacet
  facet normal 0.000000e+00 0.000000e+00 -1.000000e+00
    outer loop
      vertex   0.000000e+00 -5.000000e+00 -3.491260e+00
      vertex   2.169419e+00 4.504844e+00 -3.491260e+00
      vertex   2.169419e+00 -4.504844e+00 -3.491260e+00
    endloop
  endfacet
  facet normal 0.000000e+00 0.000000e+00 -1.000000e+00
    outer loop
      vertex   2.169419e+00 -4.504844e+00 -3.491260e+00
      vertex   2.169419e+00 4.504844e+00 -3.491260e+00
      vertex   3.909157e+00 3.117449e+00 -3.491260e+00
    endloop
  endfacet
  facet normal 0.000000e+00 0.000000e+00 -1.000000e+00
    outer loop
      vertex   2.169419e+00 -4.504844e+00 -3.491260e+00
      vertex   3.909157e+00 3.117449e+00 -3.491260e+00
      vertex   3.909157e+00 -3.117449e+00 -3.491260e+00
    endloop
  endfacet
  facet normal 0.000000e+00 0.000000e+00 -1.000000e+00
    outer loop
      vertex   3.909157e+00 -3.117449e+00 -3.491260e+00
      vertex   3.909157e+00 3.117449e+00 -3.491260e+00
      vertex   4.874640e+00 1.112605e+00 -3.491260e+00
    endloop
  endfacet
  facet normal 0.000000e+00 0.000000e+00 -1.000000e+00
    outer loop
      vertex   3.909157e+00 -3.117449e+00 -3.491260e+00
      vertex   4.874640e+00 1.112605e+00 -3.491260e+00
      vertex   4.874640e+00 -1.112605e+00 -3.491260e+00
    endloop
  endfacet
  facet normal -0.000000e+00 0.000000e+00 1.000000e+00
    outer loop
      vertex   -3.856726e-02 4.596267e-02 -3.081260e+00
      vertex   -2.052121e-02 -5.638156e-02 -3.081260e+00
      vertex   0.000000e+00 6.000000e-02 -3.081260e+00
    endloop
  endfacet
  facet normal 0.000000e+00 0.000000e+00 1.000000e+00
    outer loop
      vertex   0.000000e+00 6.000000e-02 -3.081260e+00
      vertex   -2.052121e-02 -5.638156e-02 -3.081260e+00
      vertex   2.052121e-02 -5.638156e-02 -3.081260e+00
    endloop
  endfacet
  facet normal 0.000000e+00 0.000000e+00 1.000000e+00
    outer loop
      vertex   0.000000e+00 6.000000e-02 -3.081260e+00
      vertex   2.052121e-02 -5.638156e-02 -3.081260e+00
      vertex   3.856726e-02 4.596267e-02 -3.081260e+00
    endloop
  endfacet
  facet normal 0.000000e+00 0.000000e+00 1.000000e+00
    outer loop
      vertex   3.856726e-02 4.596267e-02 -3.081260e+00
      vertex   2.052121e-02 -5.638156e-02 -3.081260e+00
      vertex   5.196152e-02 -3.000000e-02 -3.081260e+00
    endloop
  endfacet
  facet normal 0.000000e+00 0.000000e+00 1.000000e+00
    outer loop
      vertex   3.856726e-02 4.596267e-02 -3.081260e+00
      vertex   5.196152e-02 -3.000000e-02 -3.081260e+00
      vertex   5.908846e-02 1.041889e-02 -3.081260e+00
    endloop
  endfacet
  facet normal -0.000000e+00 0.000000e+00 1.000000e+00
    outer loop
      vertex   -5.908846e-02 1.041889e-02 -3.081260e+00
      vertex   -5.196152e-02 -3.000000e-02 -3.081260e+00
      vertex   -3.856726e-02 4.596267e-02 -3.081260e+00
    endloop
  endfacet
  facet normal 0.000000e+00 0.000000e+00 1.000000e+00
    outer loop
      vertex   -3.856726e-02 4.596267e-02 -3.081260e+00
      vertex   -5.196152e-02 -3.000000e-02 -3.081260e+00
      vertex   -2.052121e-02 -5.638156e-02 -3.081260e+00
    endloop
  endfacet
  facet normal 3.420201e-01 9.396926e-01 0.000000e+00
    outer loop
      vertex   3.856726e-02 4.596267e-02 -3.081260e+00
      vertex   0.000000e+00 6.000000e-02 -3.475260e+00
      vertex   0.000000e+00 6.000000e-02 -3.081260e+00
    endloop
  endfacet
  facet normal -3.420201e-01 9.396926e-01 0.000000e+00
    outer loop
      vertex   0.000000e+00 6.000000e-02 -3.081260e+00
      vertex   0.000000e+00 6.000000e-02 -3.475260e+00
      vertex   -3.856726e-02 4.596267e-02 -3.475260e+00
    endloop
  endfacet
  facet normal -3.420201e-01 9.396926e-01 0.000000e+00
    outer loop
      vertex   0.000000e+00 6.000000e-02 -3.081260e+00
      vertex   -3.856726e-02 4.596267e-02 -3.475260e+00
      vertex   -3.856726e-02 4.596267e-02 -3.081260e+00
    endloop
  endfacet
  facet normal -8.660254e-01 5.000000e-01 0.000000e+00
    outer loop
      vertex   -3.856726e-02 4.596267e-02 -3.081260e+00
      vertex   -3.856726e-02 4.596267e-02 -3.475260e+00
      vertex   -5.908846e-02 1.041889e-02 -3.475260e+00
    endloop
  endfacet
  facet normal -8.660254e-01 5.000000e-01 0.000000e+00
    outer loop
      vertex   -3.856726e-02 4.596267e-02 -3.081260e+00
      vertex   -5.908846e-02 1.041889e-02 -3.475260e+00
      vertex   -5.908846e-02 1.041889e-02 -3.081260e+00
    endloop
  endfacet
  facet normal -9.848078e-01 -1.736482e-01 -0.000000e+00
    outer loop
      vertex   -5.908846e-02 1.041889e-02 -3.081260e+00
      vertex   -5.908846e-02 1.041889e-02 -3.475260e+00
      vertex   -5.196152e-02 -3.000000e-02 -3.475260e+00
    endloop
  endfacet
  facet normal -9.848078e-01 -1.736482e-01 0.000000e+00
    outer loop
      vertex   -5.908846e-02 1.041889e-02 -3.081260e+00
      vertex   -5.196152e-02 -3.000000e-02 -3.475260e+00
      vertex   -5.196152e-02 -3.000000e-02 -3.081260e+00
    endloop
  endfacet
  facet normal -6.427877e-01 -7.660444e-01 -0.000000e+00
    outer loop
      vertex   -5.196152e-02 -3.000000e-02 -3.081260e+00
      vertex   -5.196152e-02 -3.000000e-02 -3.475260e+00
      vertex   -2.052121e-02 -5.638156e-02 -3.475260e+00
    endloop
  endfacet
  facet normal -6.427877e-01 -7.660444e-01 0.000000e+00
    outer loop
      vertex   -5.196152e-02 -3.000000e-02 -3.081260e+00
      vertex   -2.052121e-02 -5.638156e-02 -3.475260e+00
      vertex   -2.052121e-02 -5.638156e-02 -3.081260e+00
    endloop
  endfacet
  facet normal 0.000000e+00 -1.000000e+00 0.000000e+00
    outer loop
      vertex   -2.052121e-02 -5.638156e-02 -3.081260e+00
      vertex   -2.052121e-02 -5.638156e-02 -3.475260e+00
      vertex   2.052121e-02 -5.638156e-02 -3.475260e+00
    endloop
  endfacet
  facet normal 0.000000e+00 -1.000000e+00 0.000000e+00
    outer loop
      vertex   -2.052121e-02 -5.638156e-02 -3.081260e+00
      vertex   2.052121e-02 -5.638156e-02 -3.475260e+00
      vertex   2.052121e-02 -5.638156e-02 -3.081260e+00
    endloop
  endfacet
  facet normal 6.427877e-01 -7.660444e-01 0.000000e+00
    outer loop
      vertex   2.052121e-02 -5.638156e-02 -3.081260e+00
      vertex   2.052121e-02 -5.638156e-02 -3.475260e+00
      vertex   5.196152e-02 -3.000000e-02 -3.475260e+00
    endloop
  endfacet
  facet normal 6.427877e-01 -7.660444e-01 0.000000e+00
    outer loop
      vertex   2.052121e-02 -5.638156e-02 -3.081260e+00
      vertex   5.196152e-02 -3.000000e-02 -3.475260e+00
      vertex   5.196152e-02 -3.000000e-02 -3.081260e+00
    endloop
  endfacet
  facet normal 9.848078e-01 -1.736482e-01 0.000000e+00
    outer loop
      vertex   5.196152e-02 -3.000000e-02 -3.081260e+00
      vertex   5.196152e-02 -3.000000e-02 -3.475260e+00
      vertex   5.908846e-02 1.041889e-02 -3.475260e+00
    endloop
  endfacet
  facet normal 9.848078e-01 -1.736482e-01 0.000000e+00
    outer loop
      vertex   5.196152e-02 -3.000000e-02 -3.081260e+00
      vertex   5.908846e-02 1.041889e-02 -3.475260e+00
      vertex   5.908846e-02 1.041889e-02 -3.081260e+00
    endloop
  endfacet
  facet normal 8.660254e-01 5.000000e-01 0.000000e+00
    outer loop
      vertex   5.908846e-02 1.041889e-02 -3.081260e+00
      vertex   5.908846e-02 1.041889e-02 -3.475260e+00
      vertex   3.856726e-02 4.596267e-02 -3.475260e+00
    endloop
  endfacet
  facet normal 8.660254e-01 5.000000e-01 0.000000e+00
    outer loop
      vertex   5.908846e-02 1.041889e-02 -3.081260e+00
      vertex   3.856726e-02 4.596267e-02 -3.475260e+00
      vertex   3.856726e-02 4.596267e-02 -3.081260e+00
    endloop
  endfacet
  facet normal 3.420201e-01 9.396926e-01 0.000000e+00
    outer loop
      vertex   3.856726e-02 4.596267e-02 -3.081260e+00
      vertex   3.856726e-02 4.596267e-02 -3.475260e+00
      vertex   0.000000e+00 6.000000e-02 -3.475260e+00
    endloop
  endfacet
  facet normal 0.000000e+00 -0.000000e+00 1.000000e+00
    outer loop
      vertex   3.856726e-02 4.596267e-02 -3.475260e+00
      vertex   2.154667e+00 4.474211e+00 -3.475260e+00
      vertex   0.000000e+00 6.000000e-02 -3.475260e+00
    endloop
  endfacet
  facet normal 0.000000e+00 0.000000e+00 1.000000e+00
    outer loop
      vertex   0.000000e+00 6.000000e-02 -3.475260e+00
      vertex   2.154667e+00 4.474211e+00 -3.475260e+00
      vertex   0.000000e+00 4.966000e+00 -3.475260e+00
    endloop
  endfacet
  facet normal 0.000000e+00 -0.000000e+00 1.000000e+00
    outer loop
      vertex   0.000000e+00 6.000000e-02 -3.475260e+00
      vertex   0.000000e+00 4.966000e+00 -3.475260e+00
      vertex   -2.154667e+00 4.474211e+00 -3.475260e+00
    endloop
  endfacet
  facet normal 0.000000e+00 0.000000e+00 1.000000e+00
    outer loop
      vertex   2.154667e+00 4.474211e+00 -3.475260e+00
      vertex   3.856726e-02 4.596267e-02 -3.475260e+00
      vertex   3.882575e+00 3.096250e+00 -3.475260e+00
    endloop
  endfacet
  facet normal 0.000000e+00 0.000000e+00 1.000000e+00
    outer loop
      vertex   3.882575e+00 3.096250e+00 -3.475260e+00
      vertex   3.856726e-02 4.596267e-02 -3.475260e+00
      vertex   5.908846e-02 1.041889e-02 -3.475260e+00
    endloop
  endfacet
  facet normal 0.000000e+00 0.000000e+00 1.000000e+00
    outer loop
      vertex   3.882575e+00 3.096250e+00 -3.475260e+00
      vertex   5.908846e-02 1.041889e-02 -3.475260e+00
      vertex   4.841492e+00 1.105039e+00 -3.475260e+00
    endloop
  endfacet
  facet normal 0.000000e+00 0.000000e+00 1.000000e+00
    outer loop
      vertex   4.841492e+00 1.105039e+00 -3.475260e+00
      vertex   5.908846e-02 1.041889e-02 -3.475260e+00
      vertex   4.841492e+00 -1.105039e+00 -3.475260e+00
    endloop
  endfacet
  facet normal 0.000000e+00 0.000000e+00 1.000000e+00
    outer loop
      vertex   4.841492e+00 -1.105039e+00 -3.475260e+00
      vertex   5.908846e-02 1.041889e-02 -3.475260e+00
      vertex   5.196152e-02 -3.000000e-02 -3.475260e+00
    endloop
  endfacet
  facet normal 0.000000e+00 0.000000e+00 1.000000e+00
    outer loop
      vertex   4.841492e+00 -1.105039e+00 -3.475260e+00
      vertex   5.196152e-02 -3.000000e-02 -3.475260e+00
      vertex   3.882575e+00 -3.096250e+00 -3.475260e+00
    endloop
  endfacet
  facet normal 0.000000e+00 0.000000e+00 1.000000e+00
    outer loop
      vertex   3.882575e+00 -3.096250e+00 -3.475260e+00
      vertex   5.196152e-02 -3.000000e-02 -3.475260e+00
      vertex   2.154667e+00 -4.474211e+00 -3.475260e+00
    endloop
  endfacet
  facet normal 0.000000e+00 0.000000e+00 1.000000e+00
    outer loop
      vertex   2.154667e+00 -4.474211e+00 -3.475260e+00
      vertex   5.196152e-02 -3.000000e-02 -3.475260e+00
      vertex   2.052121e-02 -5.638156e-02 -3.475260e+00
    endloop
  endfacet
  facet normal 0.000000e+00 0.000000e+00 1.000000e+00
    outer loop
      vertex   2.154667e+00 -4.474211e+00 -3.475260e+00
      vertex   2.052121e-02 -5.638156e-02 -3.475260e+00
      vertex   0.000000e+00 -4.966000e+00 -3.475260e+00
    endloop
  endfacet
  facet normal 0.000000e+00 -0.000000e+00 1.000000e+00
    outer loop
      vertex   0.000000e+00 -4.966000e+00 -3.475260e+00
      vertex   2.052121e-02 -5.638156e-02 -3.475260e+00
      vertex   -2.052121e-02 -5.638156e-02 -3.475260e+00
    endloop
  endfacet
  facet normal 0.000000e+00 0.000000e+00 1.000000e+00
    outer loop
      vertex   0.000000e+00 -4.966000e+00 -3.475260e+00
      vertex   -2.052121e-02 -5.638156e-02 -3.475260e+00
      vertex   -2.154667e+00 -4.474211e+00 -3.475260e+00
    endloop
  endfacet
  facet normal 0.000000e+00 0.000000e+00 1.000000e+00
    outer loop
      vertex   -2.154667e+00 -4.474211e+00 -3.475260e+00
      vertex   -2.052121e-02 -5.638156e-02 -3.475260e+00
      vertex   -5.196152e-02 -3.000000e-02 -3.475260e+00
    endloop
  endfacet
  facet normal 0.000000e+00 -0.000000e+00 1.000000e+00
    outer loop
      vertex   -2.154667e+00 -4.474211e+00 -3.475260e+00
      vertex   -5.196152e-02 -3.000000e-02 -3.475260e+00
      vertex   -3.882575e+00 -3.096250e+00 -3.475260e+00
    endloop
  endfacet
  facet normal 0.000000e+00 -0.000000e+00 1.000000e+00
    outer loop
      vertex   -3.882575e+00 -3.096250e+00 -3.475260e+00
      vertex   -5.196152e-02 -3.000000e-02 -3.475260e+00
      vertex   -4.841492e+00 -1.105039e+00 -3.475260e+00
    endloop
  endfacet
  facet normal 0.000000e+00 0.000000e+00 1.000000e+00
    outer loop
      vertex   -4.841492e+00 -1.105039e+00 -3.475260e+00
      vertex   -5.196152e-02 -3.000000e-02 -3.475260e+00
      vertex   -5.908846e-02 1.041889e-02 -3.475260e+00
    endloop
  endfacet
  facet normal 0.000000e+00 0.000000e+00 1.000000e+00
    outer loop
      vertex   -4.841492e+00 -1.105039e+00 -3.475260e+00
      vertex   -5.908846e-02 1.041889e-02 -3.475260e+00
      vertex   -4.841492e+00 1.105039e+00 -3.475260e+00
    endloop
  endfacet
  facet normal -0.000000e+00 0.000000e+00 1.000000e+00
    outer loop
      vertex   -4.841492e+00 1.105039e+00 -3.475260e+00
      vertex   -5.908846e-02 1.041889e-02 -3.475260e+00
      vertex   -3.882575e+00 3.096250e+00 -3.475260e+00
    endloop
  endfacet
  facet normal 0.000000e+00 0.000000e+00 1.000000e+00
    outer loop
      vertex   -3.882575e+00 3.096250e+00 -3.475260e+00
      vertex   -5.908846e-02 1.041889e-02 -3.475260e+00
      vertex   -3.856726e-02 4.596267e-02 -3.475260e+00
    endloop
  endfacet
  facet normal -0.000000e+00 0.000000e+00 1.000000e+00
    outer loop
      vertex   -3.882575e+00 3.096250e+00 -3.475260e+00
      vertex   -3.856726e-02 4.596267e-02 -3.475260e+00
      vertex   -2.154667e+00 4.474211e+00 -3.475260e+00
    endloop
  endfacet
  facet normal 0.000000e+00 0.000000e+00 1.000000e+00
    outer loop
      vertex   -2.154667e+00 4.474211e+00 -3.475260e+00
      vertex   -3.856726e-02 4.596267e-02 -3.475260e+00
      vertex   0.000000e+00 6.000000e-02 -3.475260e+00
    endloop
  endfacet
  facet normal -2.225210e-01 -9.749279e-01 0.000000e+00
    outer loop
      vertex   2.154667e+00 4.474211e+00 -3.475260e+00
      vertex   2.154667e+00 4.474211e+00 4.508740e+00
      vertex   0.000000e+00 4.966000e+00 -3.475260e+00
    endloop
  endfacet
  facet normal -2.225210e-01 -9.749279e-01 0.000000e+00
    outer loop
      vertex   0.000000e+00 4.966000e+00 -3.475260e+00
      vertex   2.154667e+00 4.474211e+00 4.508740e+00
      vertex   0.000000e+00 4.966000e+00 4.508740e+00
    endloop
  endfacet
  facet normal 2.225210e-01 -9.749279e-01 0.000000e+00
    outer loop
      vertex   0.000000e+00 4.966000e+00 -3.475260e+00
      vertex   0.000000e+00 4.966000e+00 4.508740e+00
      vertex   -2.154667e+00 4.474211e+00 -3.475260e+00
    endloop
  endfacet
  facet normal 2.225210e-01 -9.749279e-01 0.000000e+00
    outer loop
      vertex   -2.154667e+00 4.474211e+00 -3.475260e+00
      vertex   0.000000e+00 4.966000e+00 4.508740e+00
      vertex   -2.154667e+00 4.474211e+00 4.508740e+00
    endloop
  endfacet
  facet normal 6.234898e-01 -7.818315e-01 0.000000e+00
    outer loop
      vertex   -2.154667e+00 4.474211e+00 -3.475260e+00
      vertex   -2.154667e+00 4.474211e+00 4.508740e+00
      vertex   -3.882575e+00 3.096250e+00 -3.475260e+00
    endloop
  endfacet
  facet normal 6.234898e-01 -7.818315e-01 0.000000e+00
    outer loop
      vertex   -3.882575e+00 3.096250e+00 -3.475260e+00
      vertex   -2.154667e+00 4.474211e+00 4.508740e+00
      vertex   -3.882575e+00 3.096250e+00 4.508740e+00
    endloop
  endfacet
  facet normal 9.009689e-01 -4.338838e-01 0.000000e+00
    outer loop
      vertex   -3.882575e+00 3.096250e+00 -3.475260e+00
      vertex   -3.882575e+00 3.096250e+00 4.508740e+00
      vertex   -4.841492e+00 1.105039e+00 -3.475260e+00
    endloop
  endfacet
  facet normal 9.009689e-01 -4.338838e-01 0.000000e+00
    outer loop
      vertex   -4.841492e+00 1.105039e+00 -3.475260e+00
      vertex   -3.882575e+00 3.096250e+00 4.508740e+00
      vertex   -4.841492e+00 1.105039e+00 4.508740e+00
    endloop
  endfacet
  facet normal 1.000000e+00 0.000000e+00 -0.000000e+00
    outer loop
      vertex   -4.841492e+00 1.105039e+00 -3.475260e+00
      vertex   -4.841492e+00 1.105039e+00 4.508740e+00
      vertex   -4.841492e+00 -1.105039e+00 -3.475260e+00
    endloop
  endfacet
  facet normal 1.000000e+00 0.000000e+00 0.000000e+00
    outer loop
      vertex   -4.841492e+00 -1.105039e+00 -3.475260e+00
      vertex   -4.841492e+00 1.105039e+00 4.508740e+00
      vertex   -4.841492e+00 -1.105039e+00 4.508740e+00
    endloop
  endfacet
  facet normal 9.009689e-01 4.338838e-01 -0.000000e+00
    outer loop
      vertex   -4.841492e+00 -1.105039e+00 -3.475260e+00
      vertex   -4.841492e+00 -1.105039e+00 4.508740e+00
      vertex   -3.882575e+00 -3.096250e+00 -3.475260e+00
    endloop
  endfacet
  facet normal 9.009689e-01 4.338838e-01 -0.000000e+00
    outer loop
      vertex   -3.882575e+00 -3.096250e+00 -3.475260e+00
      vertex   -4.841492e+00 -1.105039e+00 4.508740e+00
      vertex   -3.882575e+00 -3.096250e+00 4.508740e+00
    endloop
  endfacet
  facet normal 6.234898e-01 7.818315e-01 -0.000000e+00
    outer loop
      vertex   -3.882575e+00 -3.096250e+00 -3.475260e+00
      vertex   -3.882575e+00 -3.096250e+00 4.508740e+00
      vertex   -2.154667e+00 -4.474211e+00 -3.475260e+00
    endloop
  endfacet
  facet normal 6.234898e-01 7.818315e-01 -0.000000e+00
    outer loop
      vertex   -2.154667e+00 -4.474211e+00 -3.475260e+00
      vertex   -3.882575e+00 -3.096250e+00 4.508740e+00
      vertex   -2.154667e+00 -4.474211e+00 4.508740e+00
    endloop
  endfacet
  facet normal 2.225210e-01 9.749279e-01 -0.000000e+00
    outer loop
      vertex   -2.154667e+00 -4.474211e+00 -3.475260e+00
      vertex   -2.154667e+00 -4.474211e+00 4.508740e+00
      vertex   0.000000e+00 -4.966000e+00 -3.475260e+00
    endloop
  endfacet
  facet normal 2.225210e-01 9.749279e-01 -0.000000e+00
    outer loop
      vertex   0.000000e+00 -4.966000e+00 -3.475260e+00
      vertex   -2.154667e+00 -4.474211e+00 4.508740e+00
      vertex   0.000000e+00 -4.966000e+00 4.508740e+00
    endloop
  endfacet
  facet normal -2.225210e-01 9.749279e-01 0.000000e+00
    outer loop
      vertex   0.000000e+00 -4.966000e+00 -3.475260e+00
      vertex   0.000000e+00 -4.966000e+00 4.508740e+00
      vertex   2.154667e+00 -4.474211e+00 -3.475260e+00
    endloop
  endfacet
  facet normal -2.225210e-01 9.749279e-01 0.000000e+00
    outer loop
      vertex   2.154667e+00 -4.474211e+00 -3.475260e+00
      vertex   0.000000e+00 -4.966000e+00 4.508740e+00
      vertex   2.154667e+00 -4.474211e+00 4.508740e+00
    endloop
  endfacet
  facet normal -6.234898e-01 7.818315e-01 0.000000e+00
    outer loop
      vertex   2.154667e+00 -4.474211e+00 -3.475260e+00
      vertex   2.154667e+00 -4.474211e+00 4.508740e+00
      vertex   3.882575e+00 -3.096250e+00 -3.475260e+00
    endloop
  endfacet
  facet normal -6.234898e-01 7.818315e-01 0.000000e+00
    outer loop
      vertex   3.882575e+00 -3.096250e+00 -3.475260e+00
      vertex   2.154667e+00 -4.474211e+00 4.508740e+00
      vertex   3.882575e+00 -3.096250e+00 4.508740e+00
    endloop
  endfacet
  facet normal -9.009689e-01 4.338838e-01 0.000000e+00
    outer loop
      vertex   3.882575e+00 -3.096250e+00 -3.475260e+00
      vertex   3.882575e+00 -3.096250e+00 4.508740e+00
      vertex   4.841492e+00 -1.105039e+00 -3.475260e+00
    endloop
  endfacet
  facet normal -9.009689e-01 4.338838e-01 0.000000e+00
    outer loop
      vertex   4.841492e+00 -1.105039e+00 -3.475260e+00
      vertex   3.882575e+00 -3.096250e+00 4.508740e+00
      vertex   4.841492e+00 -1.105039e+00 4.508740e+00
    endloop
  endfacet
  facet normal -1.000000e+00 0.000000e+00 0.000000e+00
    outer loop
      vertex   4.841492e+00 -1.105039e+00 -3.475260e+00
      vertex   4.841492e+00 -1.105039e+00 4.508740e+00
      vertex   4.841492e+00 1.105039e+00 -3.475260e+00
    endloop
  endfacet
  facet normal -1.000000e+00 0.000000e+00 0.000000e+00
    outer loop
      vertex   4.841492e+00 1.105039e+00 -3.475260e+00
      vertex   4.841492e+00 -1.105039e+00 4.508740e+00
      vertex   4.841492e+00 1.105039e+00 4.508740e+00
    endloop
  endfacet
  facet normal -9.009689e-01 -4.338838e-01 0.000000e+00
    outer loop
      vertex   4.841492e+00 1.105039e+00 -3.475260e+00
      vertex   4.841492e+00 1.105039e+00 4.508740e+00
      vertex   3.882575e+00 3.096250e+00 -3.475260e+00
    endloop
  endfacet
  facet normal -9.009689e-01 -4.338838e-01 0.000000e+00
    outer loop
      vertex   3.882575e+00 3.096250e+00 -3.475260e+00
      vertex   4.841492e+00 1.105039e+00 4.508740e+00
      vertex   3.882575e+00 3.096250e+00 4.508740e+00
    endloop
  endfacet
  facet normal -6.234898e-01 -7.818315e-01 0.000000e+00
    outer loop
      vertex   3.882575e+00 3.096250e+00 -3.475260e+00
      vertex   3.882575e+00 3.096250e+00 4.508740e+00
      vertex   2.154667e+00 4.474211e+00 -3.475260e+00
    endloop
  endfacet
  facet normal -6.234898e-01 -7.818315e-01 0.000000e+00
    outer loop
      vertex   2.154667e+00 4.474211e+00 -3.475260e+00
      vertex   3.882575e+00 3.096250e+00 4.508740e+00
      vertex   2.154667e+00 4.474211e+00 4.508740e+00
    endloop
  endfacet
  facet normal 0.000000e+00 0.000000e+00 1.000000e+00
    outer loop
      vertex   -2.154667e+00 4.474211e+00 4.508740e+00
      vertex   0.000000e+00 4.966000e+00 4.508740e+00
      vertex   0.000000e+00 5.000000e+00 4.508740e+00
    endloop
  endfacet
  facet normal 0.000000e+00 0.000000e+00 1.000000e+00
    outer loop
      vertex   0.000000e+00 5.000000e+00 4.508740e+00
      vertex   0.000000e+00 4.966000e+00 4.508740e+00
      vertex   2.154667e+00 4.474211e+00 4.508740e+00
    endloop
  endfacet
  facet normal 0.000000e+00 0.000000e+00 1.000000e+00
    outer loop
      vertex   0.000000e+00 5.000000e+00 4.508740e+00
      vertex   2.154667e+00 4.474211e+00 4.508740e+00
      vertex   2.169419e+00 4.504844e+00 4.508740e+00
    endloop
  endfacet
  facet normal 0.000000e+00 0.000000e+00 1.000000e+00
    outer loop
      vertex   2.169419e+00 4.504844e+00 4.508740e+00
      vertex   2.154667e+00 4.474211e+00 4.508740e+00
      vertex   3.882575e+00 3.096250e+00 4.508740e+00
    endloop
  endfacet
  facet normal 0.000000e+00 0.000000e+00 1.000000e+00
    outer loop
      vertex   2.169419e+00 4.504844e+00 4.508740e+00
      vertex   3.882575e+00 3.096250e+00 4.508740e+00
      vertex   3.909157e+00 3.117449e+00 4.508740e+00
    endloop
  endfacet
  facet normal 0.000000e+00 0.000000e+00 1.000000e+00
    outer loop
      vertex   3.909157e+00 3.117449e+00 4.508740e+00
      vertex   3.882575e+00 3.096250e+00 4.508740e+00
      vertex   4.841492e+00 1.105039e+00 4.508740e+00
    endloop
  endfacet
  facet normal 0.000000e+00 0.000000e+00 1.000000e+00
    outer loop
      vertex   3.909157e+00 3.117449e+00 4.508740e+00
      vertex   4.841492e+00 1.105039e+00 4.508740e+00
      vertex   4.874640e+00 1.112605e+00 4.508740e+00
    endloop
  endfacet
  facet normal 0.000000e+00 0.000000e+00 1.000000e+00
    outer loop
      vertex   4.874640e+00 1.112605e+00 4.508740e+00
      vertex   4.841492e+00 1.105039e+00 4.508740e+00
      vertex   4.874640e+00 -1.112605e+00 4.508740e+00
    endloop
  endfacet
  facet normal 0.000000e+00 0.000000e+00 1.000000e+00
    outer loop
      vertex   4.874640e+00 -1.112605e+00 4.508740e+00
      vertex   4.841492e+00 1.105039e+00 4.508740e+00
      vertex   4.841492e+00 -1.105039e+00 4.508740e+00
    endloop
  endfacet
  facet normal 0.000000e+00 0.000000e+00 1.000000e+00
    outer loop
      vertex   4.874640e+00 -1.112605e+00 4.508740e+00
      vertex   4.841492e+00 -1.105039e+00 4.508740e+00
      vertex   3.909157e+00 -3.117449e+00 4.508740e+00
    endloop
  endfacet
  facet normal 0.000000e+00 -0.000000e+00 1.000000e+00
    outer loop
      vertex   3.909157e+00 -3.117449e+00 4.508740e+00
      vertex   4.841492e+00 -1.105039e+00 4.508740e+00
      vertex   3.882575e+00 -3.096250e+00 4.508740e+00
    endloop
  endfacet
  facet normal 0.000000e+00 0.000000e+00 1.000000e+00
    outer loop
      vertex   3.909157e+00 -3.117449e+00 4.508740e+00
      vertex   3.882575e+00 -3.096250e+00 4.508740e+00
      vertex   2.169419e+00 -4.504844e+00 4.508740e+00
    endloop
  endfacet
  facet normal 0.000000e+00 -0.000000e+00 1.000000e+00
    outer loop
      vertex   2.169419e+00 -4.504844e+00 4.508740e+00
      vertex   3.882575e+00 -3.096250e+00 4.508740e+00
      vertex   2.154667e+00 -4.474211e+00 4.508740e+00
    endloop
  endfacet
  facet normal 0.000000e+00 0.000000e+00 1.000000e+00
    outer loop
      vertex   2.169419e+00 -4.504844e+00 4.508740e+00
      vertex   2.154667e+00 -4.474211e+00 4.508740e+00
      vertex   0.000000e+00 -5.000000e+00 4.508740e+00
    endloop
  endfacet
  facet normal 0.000000e+00 0.000000e+00 1.000000e+00
    outer loop
      vertex   0.000000e+00 -5.000000e+00 4.508740e+00
      vertex   2.154667e+00 -4.474211e+00 4.508740e+00
      vertex   0.000000e+00 -4.966000e+00 4.508740e+00
    endloop
  endfacet
  facet normal 0.000000e+00 -0.000000e+00 1.000000e+00
    outer loop
      vertex   0.000000e+00 -5.000000e+00 4.508740e+00
      vertex   0.000000e+00 -4.966000e+00 4.508740e+00
      vertex   -2.154667e+00 -4.474211e+00 4.508740e+00
    endloop
  endfacet
  facet normal 0.000000e+00 0.000000e+00 1.000000e+00
    outer loop
      vertex   0.000000e+00 -5.000000e+00 4.508740e+00
      vertex   -2.154667e+00 -4.474211e+00 4.508740e+00
      vertex   -2.169419e+00 -4.504844e+00 4.508740e+00
    endloop
  endfacet
  facet normal 0.000000e+00 -0.000000e+00 1.000000e+00
    outer loop
      vertex   -2.169419e+00 -4.504844e+00 4.508740e+00
      vertex   -2.154667e+00 -4.474211e+00 4.508740e+00
      vertex   -3.882575e+00 -3.096250e+00 4.508740e+00
    endloop
  endfacet
  facet normal 0.000000e+00 0.000000e+00 1.000000e+00
    outer loop
      vertex   -2.169419e+00 -4.504844e+00 4.508740e+00
      vertex   -3.882575e+00 -3.096250e+00 4.508740e+00
      vertex   -3.909157e+00 -3.117449e+00 4.508740e+00
    endloop
  endfacet
  facet normal 0.000000e+00 -0.000000e+00 1.000000e+00
    outer loop
      vertex   -3.909157e+00 -3.117449e+00 4.508740e+00
      vertex   -3.882575e+00 -3.096250e+00 4.508740e+00
      vertex   -4.841492e+00 -1.105039e+00 4.508740e+00
    endloop
  endfacet
  facet normal 0.000000e+00 0.000000e+00 1.000000e+00
    outer loop
      vertex   -3.909157e+00 -3.117449e+00 4.508740e+00
      vertex   -4.841492e+00 -1.105039e+00 4.508740e+00
      vertex   -4.874640e+00 -1.112605e+00 4.508740e+00
    endloop
  endfacet
  facet normal 0.000000e+00 0.000000e+00 1.000000e+00
    outer loop
      vertex   -4.874640e+00 -1.112605e+00 4.508740e+00
      vertex   -4.841492e+00 -1.105039e+00 4.508740e+00
      vertex   -4.841492e+00 1.105039e+00 4.508740e+00
    endloop
  endfacet
  facet normal 0.000000e+00 0.000000e+00 1.000000e+00
    outer loop
      vertex   -4.874640e+00 -1.112605e+00 4.508740e+00
      vertex   -4.841492e+00 1.105039e+00 4.508740e+00
      vertex   -4.874640e+00 1.112605e+00 4.508740e+00
    endloop
  endfacet
  facet normal -0.000000e+00 0.000000e+00 1.000000e+00
    outer loop
      vertex   -4.874640e+00 1.112605e+00 4.508740e+00
      vertex   -4.841492e+00 1.105039e+00 4.508740e+00
      vertex   -3.909157e+00 3.117449e+00 4.508740e+00
    endloop
  endfacet
  facet normal 0.000000e+00 0.000000e+00 1.000000e+00
    outer loop
      vertex   -3.909157e+00 3.117449e+00 4.508740e+00
      vertex   -4.841492e+00 1.105039e+00 4.508740e+00
      vertex   -3.882575e+00 3.096250e+00 4.508740e+00
    endloop
  endfacet
  facet normal -0.000000e+00 0.000000e+00 1.000000e+00
    outer loop
      vertex   -3.909157e+00 3.117449e+00 4.508740e+00
      vertex   -3.882575e+00 3.096250e+00 4.508740e+00
      vertex   -2.169419e+00 4.504844e+00 4.508740e+00
    endloop
  endfacet
  facet normal 0.000000e+00 0.000000e+00 1.000000e+00
    outer loop
      vertex   -2.169419e+00 4.504844e+00 4.508740e+00
      vertex   -3.882575e+00 3.096250e+00 4.508740e+00
      vertex   -2.154667e+00 4.474211e+00 4.508740e+00
    endloop
  endfacet
  facet normal -0.000000e+00 0.000000e+00 1.000000e+00
    outer loop
      vertex   -2.169419e+00 4.504844e+00 4.508740e+00
      vertex   -2.154667e+00 4.474211e+00 4.508740e+00
      vertex   0.000000e+00 5.000000e+00 4.508740e+00
    endloop
  endfacet
  facet normal 2.225209e-01 9.749279e-01 0.000000e+00
    outer loop
      vertex   2.169419e+00 4.504844e+00 4.508740e+00
      vertex   2.169419e+00 4.504844e+00 -3.491260e+00
      vertex   0.000000e+00 5.000000e+00 4.508740e+00
    endloop
  endfacet
  facet normal 2.225209e-01 9.749279e-01 0.000000e+00
    outer loop
      vertex   0.000000e+00 5.000000e+00 4.508740e+00
      vertex   2.169419e+00 4.504844e+00 -3.491260e+00
      vertex   0.000000e+00 5.000000e+00 -3.491260e+00
    endloop
  endfacet
  facet normal -2.225209e-01 9.749279e-01 0.000000e+00
    outer loop
      vertex   0.000000e+00 5.000000e+00 4.508740e+00
      vertex   0.000000e+00 5.000000e+00 -3.491260e+00
      vertex   -2.169419e+00 4.504844e+00 4.508740e+00
    endloop
  endfacet
  facet normal -2.225209e-01 9.749279e-01 0.000000e+00
    outer loop
      vertex   -2.169419e+00 4.504844e+00 4.508740e+00
      vertex   0.000000e+00 5.000000e+00 -3.491260e+00
      vertex   -2.169419e+00 4.504844e+00 -3.491260e+00
    endloop
  endfacet
  facet normal -6.234898e-01 7.818315e-01 0.000000e+00
    outer loop
      vertex   -2.169419e+00 4.504844e+00 4.508740e+00
      vertex   -2.169419e+00 4.504844e+00 -3.491260e+00
      vertex   -3.909157e+00 3.117449e+00 4.508740e+00
    endloop
  endfacet
  facet normal -6.234898e-01 7.818315e-01 0.000000e+00
    outer loop
      vertex   -3.909157e+00 3.117449e+00 4.508740e+00
      vertex   -2.169419e+00 4.504844e+00 -3.491260e+00
      vertex   -3.909157e+00 3.117449e+00 -3.491260e+00
    endloop
  endfacet
  facet normal -9.009689e-01 4.338837e-01 0.000000e+00
    outer loop
      vertex   -3.909157e+00 3.117449e+00 4.508740e+00
      vertex   -3.909157e+00 3.117449e+00 -3.491260e+00
      vertex   -4.874640e+00 1.112605e+00 4.508740e+00
    endloop
  endfacet
  facet normal -9.009689e-01 4.338837e-01 0.000000e+00
    outer loop
      vertex   -4.874640e+00 1.112605e+00 4.508740e+00
      vertex   -3.909157e+00 3.117449e+00 -3.491260e+00
      vertex   -4.874640e+00 1.112605e+00 -3.491260e+00
    endloop
  endfacet
  facet normal -1.000000e+00 -0.000000e+00 -0.000000e+00
    outer loop
      vertex   -4.874640e+00 1.112605e+00 4.508740e+00
      vertex   -4.874640e+00 1.112605e+00 -3.491260e+00
      vertex   -4.874640e+00 -1.112605e+00 4.508740e+00
    endloop
  endfacet
  facet normal -1.000000e+00 0.000000e+00 0.000000e+00
    outer loop
      vertex   -4.874640e+00 -1.112605e+00 4.508740e+00
      vertex   -4.874640e+00 1.112605e+00 -3.491260e+00
      vertex   -4.874640e+00 -1.112605e+00 -3.491260e+00
    endloop
  endfacet
  facet normal -9.009689e-01 -4.338837e-01 -0.000000e+00
    outer loop
      vertex   -4.874640e+00 -1.112605e+00 4.508740e+00
      vertex   -4.874640e+00 -1.112605e+00 -3.491260e+00
      vertex   -3.909157e+00 -3.117449e+00 4.508740e+00
    endloop
  endfacet
  facet normal -9.009689e-01 -4.338837e-01 -0.000000e+00
    outer loop
      vertex   -3.909157e+00 -3.117449e+00 4.508740e+00
      vertex   -4.874640e+00 -1.112605e+00 -3.491260e+00
      vertex   -3.909157e+00 -3.117449e+00 -3.491260e+00
    endloop
  endfacet
  facet normal -6.234898e-01 -7.818315e-01 -0.000000e+00
    outer loop
      vertex   -3.909157e+00 -3.117449e+00 4.508740e+00
      vertex   -3.909157e+00 -3.117449e+00 -3.491260e+00
      vertex   -2.169419e+00 -4.504844e+00 4.508740e+00
    endloop
  endfacet
  facet normal -6.234898e-01 -7.818315e-01 -0.000000e+00
    outer loop
      vertex   -2.169419e+00 -4.504844e+00 4.508740e+00
      vertex   -3.909157e+00 -3.117449e+00 -3.491260e+00
      vertex   -2.169419e+00 -4.504844e+00 -3.491260e+00
    endloop
  endfacet
  facet normal -2.225209e-01 -9.749279e-01 -0.000000e+00
    outer loop
      vertex   -2.169419e+00 -4.504844e+00 4.508740e+00
      vertex   -2.169419e+00 -4.504844e+00 -3.491260e+00
      vertex   0.000000e+00 -5.000000e+00 4.508740e+00
    endloop
  endfacet
  facet normal -2.225209e-01 -9.749279e-01 -0.000000e+00
    outer loop
      vertex   0.000000e+00 -5.000000e+00 4.508740e+00
      vertex   -2.169419e+00 -4.504844e+00 -3.491260e+00
      vertex   0.000000e+00 -5.000000e+00 -3.491260e+00
    endloop
  endfacet
  facet normal 2.225209e-01 -9.749279e-01 0.000000e+00
    outer loop
      vertex   0.000000e+00 -5.000000e+00 4.508740e+00
      vertex   0.000000e+00 -5.000000e+00 -3.491260e+00
      vertex   2.169419e+00 -4.504844e+00 4.508740e+00
    endloop
  endfacet
  facet normal 2.225209e-01 -9.749279e-01 0.000000e+00
    outer loop
      vertex   2.169419e+00 -4.504844e+00 4.508740e+00
      vertex   0.000000e+00 -5.000000e+00 -3.491260e+00
      vertex   2.169419e+00 -4.504844e+00 -3.491260e+00
    endloop
  endfacet
  facet normal 6.234898e-01 -7.818315e-01 0.000000e+00
    outer loop
      vertex   2.169419e+00 -4.504844e+00 4.508740e+00
      vertex   2.169419e+00 -4.504844e+00 -3.491260e+00
      vertex   3.909157e+00 -3.117449e+00 4.508740e+00
    endloop
  endfacet
  facet normal 6.234898e-01 -7.818315e-01 0.000000e+00
    outer loop
      vertex   3.909157e+00 -3.117449e+00 4.508740e+00
      vertex   2.169419e+00 -4.504844e+00 -3.491260e+00
      vertex   3.909157e+00 -3.117449e+00 -3.491260e+00
    endloop
  endfacet
  facet normal 9.009689e-01 -4.338837e-01 0.000000e+00
    outer loop
      vertex   3.909157e+00 -3.117449e+00 4.508740e+00
      vertex   3.909157e+00 -3.117449e+00 -3.491260e+00
      vertex   4.874640e+00 -1.112605e+00 4.508740e+00
    endloop
  endfacet
  facet normal 9.009689e-01 -4.338837e-01 0.000000e+00
    outer loop
      vertex   4.874640e+00 -1.112605e+00 4.508740e+00
      vertex   3.909157e+00 -3.117449e+00 -3.491260e+00
      vertex   4.874640e+00 -1.112605e+00 -3.491260e+00
    endloop
  endfacet
  facet normal 1.000000e+00 -0.000000e+00 0.000000e+00
    outer loop
      vertex   4.874640e+00 -1.112605e+00 4.508740e+00
      vertex   4.874640e+00 -1.112605e+00 -3.491260e+00
      vertex   4.874640e+00 1.112605e+00 4.508740e+00
    endloop
  endfacet
  facet normal 1.000000e+00 0.000000e+00 0.000000e+00
    outer loop
      vertex   4.874640e+00 1.112605e+00 4.508740e+00
      vertex   4.874640e+00 -1.112605e+00 -3.491260e+00
      vertex   4.874640e+00 1.112605e+00 -3.491260e+00
    endloop
  endfacet
  facet normal 9.009689e-01 4.338837e-01 0.000000e+00
    outer loop
      vertex   4.874640e+00 1.112605e+00 4.508740e+00
      vertex   4.874640e+00 1.112605e+00 -3.491260e+00
      vertex   3.909157e+00 3.117449e+00 4.508740e+00
    endloop
  endfacet
  facet normal 9.009689e-01 4.338837e-01 0.000000e+00
    outer loop
      vertex   3.909157e+00 3.117449e+00 4.508740e+00
      vertex   4.874640e+00 1.112605e+00 -3.491260e+00
      vertex   3.909157e+00 3.117449e+00 -3.491260e+00
    endloop
  endfacet
  facet normal 6.234898e-01 7.818315e-01 0.000000e+00
    outer loop
      vertex   3.909157e+00 3.117449e+00 4.508740e+00
      vertex   3.909157e+00 3.117449e+00 -3.491260e+00
      vertex   2.169419e+00 4.504844e+00 4.508740e+00
    endloop
  endfacet
  facet normal 6.234898e-01 7.818315e-01 0.000000e+00
    outer loop
      vertex   2.169419e+00 4.504844e+00 4.508740e+00
      vertex   3.909157e+00 3.117449e+00 -3.491260e+00
      vertex   2.169419e+00 4.504844e+00 -3.491260e+00
    endloop
  endfacet
endsolid
